
<?xml version="1.0" encoding="UTF-8"?>
<svg version="1.1" viewBox="0 0 1600 1083" width="186" height="126" xmlns="http://www.w3.org/2000/svg">
<path transform="translate(0)" d="m0 0h1600v1083h-1600z" fill="#89969D"/>
<path transform="translate(807,425)" d="m0 0 4 2 9 8 10 8 17 14 14 10 18 14 21 16 16 12 11 9 15 12 13 10 16 12 13 10 17 12 19 14 13 10 19 14 13 10 19 14 16 12 14 10 6 4v1l-47 2-71 2-55 1h-473l-35-1-15-2v-4l26-17 21-13 17-10 20-12 16-10 20-12 22-13 20-12 18-11 20-13 25-16 14-10 75-44 27-16 19-12 19-13z" fill="#81484C"/>
<path transform="translate(380,1023)" d="m0 0h188l434 2 44 1 440 2 9 1 105 1v35h-102l-65-1-105-1-51-1h-1251l-4-1v-27l1-9 118-1z" fill="#0D1B25"/>
<path transform="translate(372,601)" d="m0 0h12l1 4-1 14-2 16-1 2-7 1h-61l-4 21-10 56-10 63-9 56-7 36-4 5-8 1h-46l-14-1-2-1 1-10 13-70 7-44 9-66 6-43 1-3h-60l-4-1v-20l1-12 1-1 11-1 42-1z" fill="#783245"/>
<path transform="translate(23,1026)" d="m0 0h368l129 1h59l32 1 6 1 2-1h13l1 4 11 2 1 4 8 1 8-1 8 3 10 2 8 4 4 1v-2l16 4v2h8l6 1 9 1h13l9 2 15 1 2 2-3 1-586 1h-158v-27z" fill="#040D11"/>
<path transform="translate(1155,690)" d="m0 0h2v9l-13 93-6 41-6 33-3 8h-44l-8-1 1-15 5-52 2-16v-7l-17 1-13-1-8-1-4 15-15 72-3 5h-45l-6-1 2-17 16-106 7-52 1-4 12-1h45l-1 12-2 17-3 20v13l38 2 1-1 10-64z" fill="#783345"/>
<path transform="translate(925,261)" d="m0 0 2 1-10 10-6 8v3l8-11 3-2-2 5-9 16-8 20-12 32-4 10-5 16-3 10-2 4-1 7-3 9-2 8-2 18-3 13v10l4 1 1-6 14-47 10-33 13-44 7-19 11-26 2-5 2 4 13 2 53 6 6 4v9l-5 25-10 35-17 48-13 40-14 43-2 5-2 13-4-2-3-3-13-10-11-8-14-10-18-13-13-9-5-5-4-7v-14l4-31 6-24 1-3h2l1-8 6-15 16-32 8-14 11-17 8-10z" fill="#0B4060"/>
<path transform="translate(1478,689)" d="m0 0h15l10 5 6 7 5 15 5 27 11 62 9 49 2 15v6l-1 1-43 1-15-1-3-1-1-24-1-7-25-1h-37l-6 4-12 24-3 4h-25l-1-3 5-9 6-10 9-19 5-11 17-38 13-27 11-25 8-16 8-12 9-9 10-5z" fill="#783345"/>
<path transform="translate(417,690)" d="m0 0h19l8 4 4 10 6 26 9 53 10 70 1 11v10l-3 1-30 1h-20l-6-1-1-3-1-28-25-1-17-1h-15l-4 4-14 27-3 3h-16l-7-2 1-7 19-39 16-35 15-33 14-29 8-16 8-14 7-8 6-2z" fill="#783345"/>
<path transform="translate(569,689)" d="m0 0 10 1 9 6 9 12 9 15 14 29 8 23 3 6v2h3v-8l12-64 4-16 2-1h23l-1 10-9 47-10 65-5 33-5 18-5 8-4 2v2l-4 1-16-2-8-5-4-5-8-18-8-19-11-25-13-30-8-17-2-1-1 18-7 39-6 32-3 22-3 5-12 2-7-1-4-2v-11l6-35 8-45 7-43 4-18 4-11 5-9 5-6 8-4z" fill="#783345"/>
<path transform="translate(1279,579)" d="m0 0h9l-1 13-3 23-7 52-9 70-9 62-12 64-2 9-7 2-30 1-18-1-2-2 3-23 9-56 10-69 6-44 7-47 9-48 2-4 32-1z" fill="#783245"/>
<path transform="translate(380,1023)" d="m0 0h188l434 2 44 1 440 2 9 1 105 1v35h-102l-65-1-105-1-51-1h-1251v-1l936-1 328-3 26-1 6-1 2 1 1-2 2-2h-22l-57-1-40-2-9-2-14-2-12-3 1-5 13-2 19-2 5-1-1-2-58-1-318-2-140-1-553-1v-1z" fill="#2B4556"/>
<path transform="translate(669,325)" d="m0 0h11l12 4 6 5 5 9 1 4v14l-2 14-5 13-7 12-8 11-5 7-5 11-3 12v24l1 3v21l-18 13-12 8-5-1-2-4-2-7-4-16-2-7-11-18-9-8-8-4-20-6-12-9-7-8-5-11-3-8v-15l4-10 5-9 5-6 9-6 9-3h15l11 4 8 7 6 8 2 5h5l1-18 4-13 9-11 10-7 9-3z" fill="#0B4060"/>
<path transform="translate(740,197)" d="m0 0h2l13 24 13 21 9 16 3 7 7 13 3 9 4 26 2 11 7 57 1 11v14l-4 4-17 9-24 15-18 11-11 7h-3l-5-53-6-55-5-31v-15l2-9 2-4 5-21 6-24 10-30 2-9z" fill="#0B4060"/>
<path transform="translate(887,695)" d="m0 0h52l1 1-1 20-1 3-38 2-13 1-10 5-1 9 4 8 8 5 31 13 13 7 6 8 3 8 1 6v16l-3 15-5 14-8 12-11 11-10 7-11 5-8 2-11 1-29 1-39-1-2-1 1-10 3-13 7-1h42l23-2 6-1 1-4v-27l-5-2-19-8-23-10-9-5-10-9-5-8-1-3v-18l4-16 6-11 9-11 10-8 12-6 9-3z" fill="#783345"/>
<path transform="translate(731,694)" d="m0 0h47l6 1-1 16-5 37-14 81-7 36-1 8-6 2-43 1-7-2 3-22 11-72 9-55 7-30z" fill="#783345"/>
<path transform="translate(184,920)" d="m0 0h98l90 1 46 1h20l4 1 4 5v10l-4 6-6 5-15 5-7 1-26 1h-189l-11-1-2-2v-5l-5 3-10-1-14-2-13-5v-4l6-5 16-9z" fill="#073554"/>
<path transform="translate(807,434)" d="m0 0 4 2v2l4 2 6 5v2l5 2 14 11-3 1-4-2-1 2-6-3-1 1 7 5v2l5 2 5 4v2l5 2 11 7 11 9 5 3v2h2l1 2 6 3v2h2l4 6-1 5-4 3-10 2-56 1-70 1-41 1h-10l-12-1 2-4 9-5 1-2 6-3h2v-2l12-6 3-1 2-4 5-4h2v-2l12-8 8-4h3v-2l9-5h2v-2h2v-2l5-3 3-2 1-3-3 1v-2h3l1-3 7-4 12-9 9-6z" fill="#855E62"/>
<path transform="translate(1346,692)" d="m0 0h11l3 3-1 6-10 14-11 15-14 21-2 5v10l6 21 9 21 16 34 8 21 1 9-8 3-25 1-20-1-8-2-3-1-2-13-18-41-10-27-1-9 7-12 42-57 11-12 7-6 5-2z" fill="#783346"/>
<path transform="translate(925,261)" d="m0 0 2 1-10 10-6 8v3l8-11 3-2-2 5-9 16-8 20-12 32-4 10-5 16-3 10-2 4-1 7-3 9-2 8-2 18-3 13v10l4 1 1-6 10-34 3 1 1 9 6 2 4 6 5 5 9 1 5 1 12-2 6-3 4-3h2v-2l7-4 4-6h2v-2l8-6 9-17 6-7h1v6l-12 35-6 19-14 43-2 5-2 13-4-2-3-3-13-10-11-8-14-10-18-13-13-9-5-5-4-7v-14l4-31 6-24 1-3h2l1-8 6-15 16-32 8-14 11-17 8-10z" fill="#073554"/>
<path transform="translate(474,362)" d="m0 0 5 3 7 7 10 13 9 13v2h2l26 42 10 17 14 24 4 9 9 15 6 9 12 19 3 3-12 7-3 1-1-2-2 4-3 1-5-4-6-14v-2h-2l-8-15-5-8-2-6h-2l-1-4-3-3-6-11-14-23-9-14-3-2-2 4-8 5h-2v2l-7 3-8 2-5-1 2-3h5l9-8 1-2 7-4 5-2-1-6-10-17-3-5-3-7-3-6-3-3-1-4-3-3-4-11-3-1-7 4-11 8-18 13-14 10-8 7h-3l1 9 6 11 7 10 9 14 11 17 6 12 11 18 9 14 6 10 4 7-1 2-1-3h-2l-3-6 2 6 10 18 6 8v2h2l9 12 1-2h2l2 4-1 9h-3l-7-14-4-2-8-11-12-21-11-18-15-24-9-15-8-13-4-7-5-9-6-9v-3h-2l-10-20 1-6 12-11 19-14 15-11 6-4h2v-2h3v-2h3v-2l6-3z" fill="#2C5A71"/>
<path transform="translate(819,216)" d="m0 0 7 1 8 8 7 11 11 33 6 9 9 5 9 1 13-5 11-8 8-2-6 7-8 8-10 13-7 11-9 15-11 20-10 25-4 15-2 13-1 2-4-2-3-9-8-44-3-19-3-22v-17l1-1v-15l-2-7v-29l-1-12z" fill="#626974"/>
<path transform="translate(582,354)" d="m0 0h15l11 4 7 6v2l-4 2 9 11h3v6l3 8v10l-4 2-1-14-6-12-7-8-8-4-5-1h-12l-6 2-5-1h-3l-3 1-2 4-3 5-3 14v12l1 5-2 3v5h2l4 8 4 4 13 2 7 1 8 6 7 4 6 2v-2l4-2 17-1 4-2h9l3-16 3-4v-10l-2-4-2-6 4 1 6 4 11 2 9-3 6-7 3-1-1 4h6l3-1-1 5-8 11-5 7-5 11-3 12v24l1 3v21l-18 13-12 8-5-1-2-4-2-7-4-16-2-7-11-18-9-8-8-4-20-6-12-9-7-8-5-11-3-8v-15l4-10 5-9 5-6 9-6z" fill="#083654"/>
<path transform="translate(794,325)" d="m0 0 2 3 5 36 3 28v14l-4 4-17 9-24 15-18 11-11 7h-3l-5-53-2-18-1-24h3l1 4 3 1v2l9 3 6 7v2l11 1 10-2 9-3 12-10 5-12h2l3-24z" fill="#073554"/>
<path transform="translate(184,920)" d="m0 0h98l90 1 46 1h20l4 1 4 5v10l-4 6-6 5-15 5-7 1-26 1h-189v-1l214-2 6-1-4-9-3-6-7-1-2-12-33 1v2l-9 3h-7l-18 4-9 1h-51l-17-1h-26l-5-2-22 1-7 2-9 1-1 17h-3v-5l-5 3-10-1-14-2-13-5v-4l6-5 16-9z" fill="#0C4060"/>
<path transform="translate(679,897)" d="m0 0 6 1 1 8-7 45-4 26-4 17-5 2-11-1-3-3 5-25 6-29 6-19 1-7-1-6-1 1-1 7-11 22-10 15-9 12-14 28-4 3-4-1 1-15-2-18-3-14-2-5v-11l3-18v-5l-4 10-3 13-2 7-6 40-3 15-2 2h-7l-2-1 2-9 5-35 8-35 2-15 1-1h8l1 1 13 2 3 2-1 10v13l3 15 3 3 1 3 5 1 2-5 14-20 6-12 1-7z" fill="#783748"/>
<path transform="translate(826,899)" d="m0 0h39l16 2 9 4 3 5 1 5v16l-3 8-15 14-4 4v7l5 5 5 8 3 9-1 4-7 3-5 1h-9l-6-3-2-4v-9-4l-4-8-4-4-6-3-2-5 24-12 11-10 3-7-1-7-2-4-9-3h-9l-10 2-3 13-5 19-2 12 2 1-1 4-2 3-2 12v17l-11 1-9-2 1-21 4-31 5-30 1-9z" fill="#783647"/>
<path transform="translate(756,898)" d="m0 0 6 1 3 3 6 15 5 24 4 24 1 12 3 1v11l-4 6-7 2-9-2-3-5-5-21-2-4-8-2-13 2-8-4-11 22-6 11-4 2h-6l3-9 14-29 11-28 9-16 7-9 7-5z" fill="#783547"/>
<path transform="translate(1043,401)" d="m0 0h11l4 1v2l5 1 10 7 7 8 3 6 1 5v8l-3 13-8 14-8 12-2 5-9 14-10 15-11 20-3 17-2 7-1 5 2 3h4l2-5 11-18 10-17 21-35 7-11 9-13 2-1-1 9-6 11-12 21-13 24-10 17-12 23-3 2v-4l-3 1-2 2-14-10-11-7-1-2 4-4 11-19 9-14 4-5 6-10 7-11 5-5 9-15 7-14h2l4-12v-14l-3-6-7-8-8-3-12-1-9 4-9 8-11 14-8 11-10 18-7 12-15 30-7 12h-2v-3h-5l2-6 3-7 16-32 7-12 6-11 9-14 8-11 13-13 10-6h2v-2z" fill="#2B4252"/>
<path transform="translate(1285,907)" d="m0 0h10l9 4 4 6 4 8 1 4v18l-3 10-8 15-8 10-8 6-5 2h-8l-9-6-7-7-5-9-1-4v-7l5-19 7-14 7-9 6-5z" fill="#8A979E"/>
<path transform="translate(1385,900)" d="m0 0h18l15 1 11 3 5 4 5 10 3 13-2 7-6 5-14 7-6 5-1 2v10l12 20 4 4-1 4-14 1-7-4-7-22-3-13-1-2v-7h7l12-9 4-6 1-3v-13l-5-7-9-2h-11l-4 5-4 13-7 44-1 22-3 5h-14l2-7v-9l-3-6 1-13 3-26 1-3 1-11v-20l6-1z" fill="#855E62"/>
<path transform="translate(1281,898)" d="m0 0h11l14 3 9 5 5 5 5 8 3 13 1 9v11l-3 9-4 8-12 13-10 8-10 5-7 2-16-1-10-1-9-6-7-9-5-11-2-11v-14l4-14 7-11 5-6 8-7 8-5 6-2zm4 9-11 4-7 7-9 15-5 15-2 9v7l3 8 6 8 9 8 4 2h8l10-5 9-10 8-14 4-10 1-4v-18l-3-8-5-9-4-3-6-2z" fill="#793647"/>
<path transform="translate(740,197)" d="m0 0h2l13 24 13 21 9 16 3 7 3 6v4l-17 7-16 6-16 5-11 1-5-1v-20l8-33 10-30 2-9z" fill="#081E32"/>
<path transform="translate(1077,1028)" d="m0 0h75l58 1 1 3-5 2-25 3-7 1-1 4 12 2 20 3 8 1 36 2 63 1 15 1-1 3-10 2-37 1-91 1h-62v-1l41-1 20-1 12-1-2-2-26-1-44-1-21-2-20-5v-2l-7-1-2-4 1-2 6-3 10-2-17-1z" fill="#102C41"/>
<path transform="translate(534,899)" d="m0 0h24l3 7 1 12-1 1h-6l-3-6-2-2h-17l-6 3-3 4v8l3 5 8 4 22 9 3 3 1 3v10l-3 10-6 10-5 6-9 6-10 3-13-1-9-3-5-4-4-8v-9l1-2 3 1 4 7v2l5 2 6 3 10 1 7-4 3-4 1-10-4-2-13-12-9-6-6-8v-13l4-13 6-7 9-4z" fill="#783547"/>
<path transform="translate(583,365)" d="m0 0h12l9 3 6 4 6 7 4 7 1 4v14l-3 7-6 8-5 4-10 4h-13l-7-2-8-8-7-12-2-6v-13l6-10 9-8z" fill="#88959D"/>
<path transform="translate(666,334)" d="m0 0h13l7 3 5 8 2 7v9l-3 15-7 14-9 11-9 3-11-2-11-8-3-4-2-8v-15l4-11 6-10 7-7 8-4z" fill="#88969D"/>
<path transform="translate(1084,898)" d="m0 0h14l14 2 7 3v8l-1 5-1 4-2-1-1-9-5 1-14-1h-13l-3 3-1 3v9l3 6 10 5 5 2 7 6 10 4v15l-5 12-9 10-9 6-6 2-12 1-12-2-5-4-5-13v-5l5 1 5 5 4 5 6 3h9l9-6 7-8 1-3v-7h-8l-5-2-7-2-7-6-5-4-4-6-1-5 2-13 5-14 5-7 5-2z" fill="#824A4E"/>
<path transform="translate(977,209)" d="m0 0h18l9 3 2 2-1 6-7 26-3 15v10l-21-3-26-4 4-18 3-6 2-10 4-11 6-7z" fill="#083655"/>
<path transform="translate(919,899)" d="m0 0h24l6 1 48 1 1 4-4 4-12 1h-16l-4 39-5 33-3 10-1 2-10 1-10-1 1-8 2-7 7-59v-9l-3-2-20-3-2-2z" fill="#814A4E"/>
<path transform="translate(173,977)" d="m0 0h101l50 1 1 1v6l-3 8-1 1-58 1-41-1-19-1-15-3-3-3-1-4-6-2-5-3z" fill="#0C1B24"/>
<path transform="translate(1052,1061)" d="m0 0h226l50 1 109 1 61 1 102 1v1l-7 1h-220l-228-3-778-1v-1z" fill="#627582"/>
<path transform="translate(807,425)" d="m0 0 4 2 9 8 10 8 17 14 14 10 18 14 21 16 16 12 11 9 8 6-3 2-5-3-5-2-2-2-1-2-6-1-11-9-14-10-5-4-5-5-7-4v-2l-4-1-5-5-13-10-8-4-11-9-9-6v-2l-4-2-6-5v-2l-4-1-7 3-17 12-5 4-3 1-1 2h-3v2l-13 7-5 2v2l-12 6-7 4h-2v2h-2v2l-12 7-7 4-13 7-6 4-9 4-10 1-2-2 4-4 19-11 15-9 22-13 14-8 20-12 19-12 19-13z" fill="#70454D"/>
<path transform="translate(1145,899)" d="m0 0h26l13 2 25-1 8-1 2 1-1 6-2 4h-24l-3 8-5 21-7 34v10l1 1v8l-4 2-14-1-4-1-1-3 5-12 4-25 2-27 1-4v-9l-1-3-5-1-17-1v-7z" fill="#824A4E"/>
<path transform="translate(1476,902)" d="m0 0h55l1 1-1 7-3 3-8-2h-18l-4 3-2 7v13l4 8 7 3 4-1 8-9 6-1v10l-3 7-4 2h-12l-5-3-5-4-3 1-6 16-4 17-5 12-2 4-9-1v-5l2-3 3-18 4-52z" fill="#855D61"/>
<path transform="translate(96,170)" d="m0 0h23l5 2-1 9-6 25-2 11h-28l-12-3-3-4v-2h-2l-1-6v-12l6-10 9-6z" fill="#0D1A22"/>
<path transform="translate(1420,698)" d="m0 0h3l1 5-11 27-13 28-12 26-8 15-4 6-7-1-3-4-3-7-2-2-2-9-2-4v-13l3-8 2-2h3l1 6v9l1 4h2l6-7 6-16 2-6 7-5 7-2 8-21 7-13z" fill="#626873"/>
<path transform="translate(1458,733)" d="m0 0 3 2 2 20 5 44 1 16-1 3h-23l-20-1-3-1 2-5 18-35 11-27 3-9z" fill="#8A979E"/>
<path transform="translate(399,741)" d="m0 0h2l2 7 4 44 1 24-15 1h-25l-3-1 1-5 7-15 15-32 9-21z" fill="#8A979E"/>
<path transform="translate(933,258)" d="m0 0 1 3-4 9-2 1-6 15-10 24-10 32-9 31-17 56-6 20-4-1-1-2v-8l3-13 2-18 4-16 1-1 2-10 3-8 3-11 3-8 5-14 5-12 6-16 10-24 8-14 6-7 4-4h2z" fill="#87959C"/>
<path transform="translate(783,587)" d="m0 0 4 2 2 3 2 8-1 9-2 11-3 8h-6l-2 5-6 2v2l-5 1-1 3-6 5-4-4-1-4-5-1-5-3-2-4 1-9 7-15 1-2h2l2-5 6-5 9-3 10-2z" fill="#783245"/>
<path transform="translate(1094,464)" d="m0 0h1l-1 9-6 11-12 21-13 24-10 17-12 23-3 2v-4l-3 1-2 2-14-10-11-7-1-2 4-4 11-19 9-14 4-5 6-10 7-11 2-1-2 5-4 8 14-21 3 1-9 15 6-9 5-6v3l-9 14-10 15-11 20-3 17-2 7-1 5 2 3h4l2-5 11-18 10-17 21-35 7-11 9-13z" fill="#656873"/>
<path transform="translate(925,261)" d="m0 0 2 1-10 10-6 8v3l8-11 3-2-2 5-9 16-8 20-12 32-4 10-5 16-3 10-2 4-1 7-3 9-2 8-2 18h-1l1-28 3-14 4-10 6-19v-6l-1 2h-2l-2 10-3 3-4 13-5 17-5 27-2 10h-2l1 5 1 7-2-2-2-4v-14l4-31 6-24 1-3h2l1-8 6-15 16-32 8-14 11-17 8-10z" fill="#2E5B72"/>
<path transform="translate(819,216)" d="m0 0 7 1 8 8 7 11 11 33 6 9 9 5 9 1 13-5 11-8 8-2-6 7-8 8-9 12-15 1-10-8-6-7-6-3-5-8-7-25-5-10-4-5h-3l-1 2v12l3 18v27l-1 7v15l1 19 1 8v9h-1l-4-24-3-22v-17l1-1v-15l-2-7v-29l-1-12z" fill="#637D8B"/>
<path transform="translate(679,897)" d="m0 0 6 1 1 8-7 45-4 26-4 17-5 2-11-1-3-3 5-25 6-29 6-19 1-5h2l-1-12 3-3z" fill="#783547"/>
<path transform="translate(669,325)" d="m0 0h11l12 4 6 5 5 9 1 4v14l-2 14-5 13-5 9-2-1-7 1-2-2 1-2-2-1 6-9 4-10 2-12v-9l-4-11-5-5-4-1h-13l-9 4-8 7-6 10-4 11v22l-3-1-5-9v-24l4-9 8-10 10-7 9-3z" fill="#0B3957"/>
<path transform="translate(755,225)" d="m0 0 4 2 9 15 9 16 3 7 3 6v4l-17 7-13 5h-4l-2-9 3-10v-10l2-3v-7l-1-1h-6l-4 2 1 17-5 4-6 2-1-8 3-6v-7l-3-2 1-11h3v-2l7-2 1 1v7h4l1-5 5 1 1-1v-9z" fill="#0D1A22"/>
<path transform="translate(1422,904)" d="m0 0h7l5 4 5 10 3 13-2 7-6 5-14 7-6 5-1 2v10l12 20 4 4-1 4-14 1-7-4-7-22-3-13-1-2v-7h7l12-9 4-6 1-3 1-15 2-5z" fill="#824A4E"/>
<path transform="translate(966,278)" d="m0 0 12 1 18 2 6 4v9l-2-4-7 3-3 6-4 1-2-4-3-1-1 5-4 8h-2l-3 9-8 7-9 1-1 2-9-1-4-4 1-4 2-5h2l1-5h-3v-7l3-5 8-6 2-4 10-3h3l-1-3z" fill="#1D4961"/>
<path transform="translate(461,376)" d="m0 0h2l-1 3-13 9-18 13-14 10-8 7h-3l1 9 6 11 7 10 9 14 11 17 6 12 11 18 9 14 6 10 4 7-1 2-1-3h-2l-3-6 2 6 10 18 6 8v2h2l9 12 1-2h2l2 4-1 9h-3l-7-14-4-2-8-11-12-21-11-18-15-24-9-15-8-13-4-7-5-9-6-9v-3h-2l-10-20 1-6 12-11 19-14 8-6 3 1-10 8-12 8-11 10 9-6 30-22 11-8z" fill="#2D4151"/>
<path transform="translate(1258,906)" d="m0 0 11 1h4l6-1 2 3-8 4-7 8-8 14-4 13-6-1v2h-2l-2 6-1 12 4 7 8 6 6 5v2l6 2 3 2v2l3 1v1l-12 1-8-3-8-7-6-10-4-11-1-7v-14l4-14 7-11 5-6z" fill="#855F63"/>
<path transform="translate(876,938)" d="m0 0 3 1 2 6-1 4-6 5-2 3v7l5 5 5 8 3 9-1 4-7 3-5 1h-9l-6-3-2-4v-9-4l-4-8-4-4-6-3-2-5 28-14 4 1v-2z" fill="#81494D"/>
<path transform="translate(184,920)" d="m0 0h98l90 1 39 1v1h-141l-83-1 2 1v31l-3-1v-5l-5 3-10-1-14-2-13-5v-4l6-5 16-9z" fill="#2A4151"/>
<path transform="translate(1031,1028)" d="m0 0h46l18 1-1 2-16 4 1 5 7 2v2l7 1 19 4 24 1 39 1 23 1 1 3-13 2-29 1h-29v-1l8-1 1-3-53-2-10-1h-7l-11-2h-8l-8-4-2-5 5-5 5-1v-3l-17-1z" fill="#071C30"/>
<path transform="translate(724,399)" d="m0 0 5 5 1 4 10 3 2 1v2l4-1v2l14 2 9 2 14-3 6-2 2-4 6-4 5 1v2l-19 10-24 15-18 11-11 7h-3l-3-33z" fill="#112D42"/>
<path transform="translate(958,433)" d="m0 0 1 2-8 26-10 29-2 13-4-2-3-3-13-10-11-8-14-10-18-13-5-4v-7h3l3 5 10 9 6 5 15 4h10l16-5 7-4 1-2h2l2-5 6-11z" fill="#112D42"/>
<path transform="translate(1156,694)" d="m0 0h1l-1 12-4 28-2-3-2 2-1 2h-3l-1 5-3 2-2 6h-2l-1 3-1-4 3-7 1-5h-1l-3-1 1-3h2v-7l-2-4-3-2v-2l-6-1v2h-2l-1 2-5-2-1 3-3-1v-3l-2 3-1-5-2-1-1-4 3-9 4-3h4l1 2 4-1v2l7-2 4 1-2 3 7-3 7 1 3 3v2l3-3 2-5z" fill="#81474B"/>
<path transform="translate(1327,932)" d="m0 0h1l1 9v11l-3 9-4 8-12 13-10 8-10 5-7 2-9-1-4-3v-2l-5-2-4-2-9-9-5-3-4-5-1-8 2-10 2-3h2v-2l5-1-1 18 3 8 6 8 8 7 4 2h8l10-5 5-4v2h5l4-5 2-7h2l2-7 3-1 1-5 1-2h2l1-8 2-3h2l1-6h2z" fill="#824A4E"/>
<path transform="translate(418,922)" d="m0 0h20l4 1 4 5v10l-4 6-6 5-15 5-7 1-26 1h-189v-1l214-2 6-1-1-9v-7l2-5 1-8z" fill="#25536B"/>
<path transform="translate(430,604)" d="m0 0 11 2 15 5 3 3v2l-33 17-10 4h-4v-18l1-12 1-2z" fill="#626873"/>
<path transform="translate(1108,948)" d="m0 0 2 1v2h2l1 4v8l-5 12-9 10-9 6-6 2-12 1-12-2-5-4-5-13v-5l5 1 5 5 4 5 6 3h9l9-6 7-8 4-11 4-4h2l2-4z" fill="#783547"/>
<path transform="translate(189,944)" d="m0 0 49 1 6 1h13l4-1h9l5 1h6l4 1 17 3 3 1h7v2l-63 1h-60l-1-1v-8z" fill="#112D42"/>
<path transform="translate(962,925)" d="m0 0h1v15l-5 37-3 13-2 4-10 1-10-1 1-8 2-7 4-32 1-1 1-8h1v6l2 1-1 11-1 13 3-1 4-7 4 2 1-6v-9l2-3 2-8v-5l2-1z" fill="#70464E"/>
<path transform="translate(96,170)" d="m0 0h23l5 2-1 9-1 4-3 1-10-4-11 1-9 3-3 5-3 9-4 6-9-1-1-3v-12l6-10 9-6z" fill="#061015"/>
<path transform="translate(1094,464)" d="m0 0h1l-1 9-6 11-12 21-13 24-10 17-12 23-3 2v-4l-3 1-2 2-2-4 7-12 10-16 8-14 21-35 7-11 9-13z" fill="#2A4151"/>
<path transform="translate(1182,935)" d="m0 0h1v9l-6 29v10l1 1v8l-4 2-14-1-4-1-1-3 5-12 3-18 3-8 5 1 1-4h3l2-7z" fill="#773547"/>
<path transform="translate(972,210)" d="m0 0h5l-3 4 9 1-1 2-12 5 10 2 1 4-3 12-2 2-11 2-1 2h-2v10l-2 5-2 4-10-1 4-18 3-6 2-10 4-11 6-7z" fill="#1D4860"/>
<path transform="translate(684,327)" d="m0 0 6 1 8 6 5 9 1 4v14l-2 14-5 13-5 9-2-1-7 1-2-2 1-2-2-1 6-9 4-10 2-12v-9l-4-11-5-6 4-1-1-4-2-1z" fill="#0F4361"/>
<path transform="translate(925,261)" d="m0 0 2 1-10 10-6 8v3l8-11 3-2-2 5-9 16-8 20-12 32-4 10-5 16-3 10-2 4-1 7-3 9-2 8-2 18h-1l1-28 3-14 4-10 8-24 7-18 6-12v-5h-4l-4-2 2-5 12-20 9-13 9-10z" fill="#626A75"/>
<path transform="translate(1476,902)" d="m0 0h55l1 1-1 7-3 3-8-2h-18l-4 3-2 7-1 16-2 1-5-7-2-7h-3l-1-7-1-3h-3l-2-7z" fill="#793647"/>
<path transform="translate(667,469)" d="m0 0 2 3v16l-6 3-1 4-22 15-5-1-2-4-1-6v-8l9-5 3-3 5-2 4-5 5-1h5z" fill="#071E32"/>
<path transform="translate(1023,458)" d="m0 0 2 1-2 6h-2l-2 6-1 2h2l-2 6-2-1-2 9-10 19-4 6-3 7-10 18-5-1-6-5 3-1 2-5 11-18 12-21 4-9h2l2-5 9-13z" fill="#2B4151"/>
<path transform="translate(171,975)" d="m0 0h73l60 1 20 1 2 1v11l-1 6-2 1-42 1-58-1-28-2-14-2-8-5-1-6-2-2zm2 2 3 3 6 3h2l2 6 10 3 7 1 19 1 46 1 53-1 2-2 2-7v-6l-1-1-50-1z" fill="#626F7B"/>
<path transform="translate(882,347)" d="m0 0h1v7l-9 28-3 9-1 6-2 30-2 11v10l4 1 1-6 1 3-1 6-5-2-8-7-2-8-1-2 1-3h2l3-22 5-23 6-17 2-6 2-2 3-10h2z" fill="#294354"/>
<path transform="translate(1476,933)" d="m0 0 3 1 1 10v5l2 2 2-1 2 1 1-4 1-2 4 1-1 6-4 11-4 17-5 12-2 4-9-1v-5l2-3 3-18 3-33z" fill="#793748"/>
<path transform="translate(768,245)" d="m0 0h2l7 13 3 7 3 6v4l-17 7-8 3-5-1 1-3 2-15 4-10 6-5z" fill="#050E13"/>
<path transform="translate(582,354)" d="m0 0h15l11 4 7 6v2l-4 2 9 11h3v6l3 8v10l-4 2-1-14-6-12-7-8-8-4-5-1h-12l-6 2-5-1h-3l-3 1-2 4-4 2 2-5 4-4h2v-5l10-5z" fill="#0A3857"/>
<path transform="translate(1015,368)" d="m0 0 5 1v2l3 1 6 8-1 4-14 10-9 8-5 3-4-1 1-8 6-14 5-6h2v-3h2l1-4z" fill="#627C8A"/>
<path transform="translate(745,918)" d="m0 0 4 2 2 2 2 11v17l-4 3h-17l-1-9 9-22z" fill="#8A979E"/>
<path transform="translate(667,439)" d="m0 0h1l1 26 1 3v21l-8 5 1-4 6-2-1-16-1-2-3 5-1 1h-7l-5 3-3 4-6 1-2 4-6 3h-2v7h-1l-2-16 4-2 7-1 8-9 8-6 4-4 3-13 2-5z" fill="#112E43"/>
<path transform="translate(173,977)" d="m0 0h101l50 1v1h-140l1 1 8 5 5 4 27 2 65 1 31 1v1l-58 1-41-1-19-1-15-3-3-3-1-4-6-2-5-3z" fill="#2A4759"/>
<path transform="translate(184,920)" d="m0 0h98l90 1 39 1v1h-141l-83-1 1 9-4 5-4 8h-1v-9l1-6 1-5 2-1-4-2z" fill="#2A5971"/>
<path transform="translate(726,420)" d="m0 0 5 2 4 2 8 2 3 3v2l14 1-4 4-15 9-11 7h-3l-1-11z" fill="#081F32"/>
<path transform="translate(1433,908)" d="m0 0 4 5 4 12 1 8-3 6-5 4-14 7-6 5-2 8-2-4-1-5 2-4 6-5 3-1 1 2 1-3 1-7 4-4v-14l-1-9 7 2z" fill="#865F63"/>
<path transform="translate(949,458)" d="m0 0h1l-1 9-8 23-2 13-4-2-3-3-13-10-6-5h3l5 1 10-9 8-5 5-4z" fill="#081E32"/>
<path transform="translate(862,328)" d="m0 0h2l-2 6-5 9-10 25-5 20-1 2-3-1-4-6-2-14 2-4 12-13 6-9 3-9 5-5z" fill="#2B586F"/>
<path transform="translate(841,453)" d="m0 0 5 3 16 12 38 29 16 12 11 9 8 6-3 2-5-3-5-2-2-2-1-2-6-1-11-9-14-10-5-5 9 3-8-6-5-3-8-7-2-1v-2l-5-2-13-9v-2l-4-2-6-6z" fill="#68454E"/>
<path transform="translate(983,228)" d="m0 0 2 4 1 10 3 2v6l2 4 2 11-2 3h-17l-1-3 3-1-1-3-1-13-1-4 5-1 3-10z" fill="#112D42"/>
<path transform="translate(1078,641)" d="m0 0h2v2l4-2 5 3 9 6 4 1v2l4 2 1 5h5l2-2 6 4v1l-20 1h-23v-1h8l-2-6-2-3h-3l-1-5 1-1z" fill="#855E62"/>
<path transform="translate(869,958)" d="m0 0h1l2 6 5 5 5 8 3 9-1 4-7 3h-11l2-4-1-5h-2l-3-12 3-6h2l1-6z" fill="#70424B"/>
<path transform="translate(447,492)" d="m0 0 4 4 10 16 10 15 17 28 7 10 11 18 3 2v2l-5 3h-2v-9l-1-4h-2l-1 3-9-11v-2h-2l-10-15-9-17 1-3 3 5v2h2l-3-6-10-17-10-15-4-7z" fill="#815F64"/>
<path transform="translate(547,477)" d="m0 0 5 3 1 2h2l8 14 8 12 10 16 8 12 2 2-7 4h-3l-7-12-7-16-14-24-6-11z" fill="#2A4151"/>
<path transform="translate(461,376)" d="m0 0h2l-1 3-13 9-18 13-14 10-8 7h-3l1 9 6 12-1 6 6 10-1 2-4-5-3-5v-3h-2l-10-20 1-6 12-11 19-14 8-6 3 1-10 8-12 8-11 10 9-6 30-22 11-8z" fill="#234D64"/>
<path transform="translate(349,1078)" d="m0 0h52l27 1 11 2 2 2h-103l4-4z" fill="#637D8B"/>
<path transform="translate(783,273)" d="m0 0 4 5 3 9-1 4-1-4-24 3-13 2-5 2-14 1-3 1h-10l1-3h8l16-4 17-6 12-5 8-3h2z" fill="#29576F"/>
<path transform="translate(1084,898)" d="m0 0h14l14 2 7 3v8l-1 5-1 4-2-1-1-9-5 1-25-2v-5l-2-1h2v-3l-10 2-5 3 2-4 5-2z" fill="#824A4E"/>
<path transform="translate(524,354)" d="m0 0 7 1 2 2v9l-4 16-3 1-3-3-9-11-4-5 2-4 3-3z" fill="#627C8A"/>
<path transform="translate(1058,479)" d="m0 0 3 1-9 15 6-9 5-6v3l-9 14-10 15-8 14-6 6 1-6-5 1 2-6 5-7 7-14 6-9 4-4-2 5-4 8 6-9z" fill="#765D64"/>
<path transform="translate(567,361)" d="m0 0h2l-1 4-6 5-1 7-3 14v12l1 5-2 3v5h2l4 8 7 7 9 6v2l-5-2-10-8-7-9-5-12-2-5v-15l4-10 5-9 5-6z" fill="#0C3856"/>
<path transform="translate(424,922)" d="m0 0h14l4 1 4 5v8l-2-2-6 8-2-1-10 4h-2l-2-4v-9l5-3 3-1-1-3-5-2z" fill="#2C5971"/>
<path transform="translate(1385,900)" d="m0 0h18l15 1 9 2-4 2 1 5-3 7-4-5-5-3-6-1h-11l-5 4-4-3-5-3v-4z" fill="#855C61"/>
<path transform="translate(412,439)" d="m0 0 3 1 11 18 9 13 5 8v6l-4-4-7-11 2 4 8 15 5 8v3l-3-1-11-19-7-12-5-8-2-7-5-8z" fill="#43404E"/>
<path transform="translate(979,237)" d="m0 0 1 2-2 4-5 1 2 4 1 16-2 2v1l-14-1-4-3 4-3 1-5 1-9 2-2 4-2 8-1z" fill="#073655"/>
<path transform="translate(1050,970)" d="m0 0 5 1 5 5 4 5 6 3 7 1v6l4-1 5-1 1 3-10 2-13-1-7-3-3-5-4-10z" fill="#814B4F"/>
<path transform="translate(490,414)" d="m0 0 6 4 6 5 1 7 1 6 3 3 2 7-5-3-2 4-8 5h-2v2l-7 3-8 2-5-1 2-3h5l9-8 1-2 7-4 5-2-1-6-10-17z" fill="#2D5A71"/>
<path transform="translate(1161,970)" d="m0 0h1v7l8 1 4 4 1-8h1l1 9 1 1v8l-4 2-14-1-4-1-1-3 5-12z" fill="#814B4F"/>
<path transform="translate(1215,899)" d="m0 0 4 1-1 6-2 4h-16l-8-1 4-3 9-3-12-1-2 4h-2v2l-4 1-5 5h-4l3-9 1-2-4-1v-1h14l19-1z" fill="#814A4F"/>
<path transform="translate(778,959)" d="m0 0h1l2 18 3 1v11l-4 6-7 2-9-2-2-4 3 1v-2l4-4h2l1-3 3-4 2-6z" fill="#744049"/>
<path transform="translate(183,978)" d="m0 0h29v1l-21 1 3 4 18 4 37 2 49 1h25l-1 2h-32l-65-1-27-2-9-7-6-3z" fill="#112D42"/>
<path transform="translate(1077,900)" d="m0 0h7v9l-5 4-4 11-5-1v-2l-4-1-1-4v-6l3-5 6-4z" fill="#783446"/>
<path transform="translate(996,222)" d="m0 0 3 1v5l-1 2-1 11 1 5-3 15v10l-13-2v-1l9-1 1-5-3-10-1-3 1-6v-10l6-10z" fill="#0B4060"/>
<path transform="translate(324,978)" d="m0 0h2v11l-1 6-2 1-42 1-58-1-28-2v-1h27l46 1 53-1 3-8z" fill="#627784"/>
<path transform="translate(953,907)" d="m0 0 7 2 1 1-1 14-4 7h-3l-3-9v-2l-4 1-1 6h-1v-18z" fill="#70434B"/>
<path transform="translate(1188,910)" d="m0 0 3 1-6 23-1 5-4-1-5 10-4 2v2l-5-1-1 6h-1l1-17h1l1 6 3 2 3-9 3-7 3-10 5-2 3-9z" fill="#824A4E"/>
<path transform="translate(630,360)" d="m0 0h1l1 19 2 9-4 8-4-4-1-5h-2l-1-7-4-2-8-10 1-2 5-1 6 8 2 5h5z" fill="#0E4261"/>
<path transform="translate(405,923)" d="m0 0h16v8l-2 6-1 9-4-4-2-5-7-1-2-12z" fill="#0B4060"/>
<path transform="translate(891,337)" d="m0 0 1 2-10 30-3 10-2 4-1 7-3 9-2 8-2 18h-1l1-28 3-14 4-10 5-15h2l3-10z" fill="#62707D"/>
<path transform="translate(1281,898)" d="m0 0h11l7 1-3 3h-8l-5 1 1 2h10l3 3h-19l-3-1-6 2v-2l-3 1-7-1 1-3 8-4z" fill="#824C50"/>
<path transform="translate(1484,979)" d="m0 0h2l2 3 8 3 5 3 2 2 12-3 3 1 1 6h-16l-11-2-10-4 1-7z" fill="#845F63"/>
<path transform="translate(77,209)" d="m0 0 13 3 13-1 10-2 2 1v7h-28l-12-3v-4z" fill="#050E13"/>
<path transform="translate(873,967)" d="m0 0 4 2 5 8 3 9-2 4v-2l-7 1-2-4-7-2v-14h2l2 4 3 2 2 4 2 1-1-6-3-1z" fill="#814B50"/>
<path transform="translate(535,503)" d="m0 0 5 1-1 5-6 4h-2v2l-14 4h-8l5-5h3v-2h3v-2z" fill="#355E74"/>
<path transform="translate(949,269)" d="m0 0h16l1 2 7 1h11l4 1 1 4-1 1h-10l-30-5z" fill="#637D8B"/>
<path transform="translate(438,387)" d="m0 0 3 1-10 8-12 8-11 10-4 4-2 6 7 16 9 15-1 2-4-5-3-5v-3h-2l-10-20 1-6 12-11 19-14z" fill="#152C3F"/>
<path transform="translate(836,451)" d="m0 0 8 6 7 6v2l5 2 11 8 2 1v2l5 2 7 7 7 4 6 4-2 2-13-8-5-4-3-1v-2l-4-1-5-5-13-10-9-7v-2h-2z" fill="#773245"/>
<path transform="translate(997,514)" d="m0 0h2l-2 5-10 18-5-1-6-5 3-1 2-5 5-8h2l1 6 3-1z" fill="#614851"/>
<path transform="translate(570,365)" d="m0 0 3 1 2 3-9 8-5 9v13l5 12v3l-4-5-4-8-1-10 3-14 3-5 5-5z" fill="#114462"/>
<path transform="translate(412,439)" d="m0 0 3 1 11 18 9 13 5 8v6l-4-4-10-16-8-13-6-11z" fill="#634B54"/>
<path transform="translate(841,453)" d="m0 0 5 3 16 12 17 13 8 6v3l-6-2-7-7-5-3v-2l-5-2-13-9v-2l-4-2-6-6z" fill="#68474F"/>
<path transform="translate(478,558)" d="m0 0 5 1 4 6v2h2l9 12 1-2h2l2 4-1 9h-3l-7-14-4-2-8-11z" fill="#2A4151"/>
<path transform="translate(852,350)" d="m0 0 1 3-6 15-5 20-2 1-1-8v-8l2-8 6-9h2v-2h2z" fill="#2A4151"/>
<path transform="translate(475,555)" d="m0 0 4 4 6 10 5 6 5 5 5 10-1 3h-4l-9-15-5-10-6-11z" fill="#845F64"/>
<path transform="translate(1027,452)" d="m0 0h2l-1 8-8 18-8 15-1-2 3-6 1-7 2-2 1 1 2-4h-2l2-6 1-2h2l1-6h-3l-2 5-5 6-1-2 4-6 8-9z" fill="#7E6065"/>
<path transform="translate(511,449)" d="m0 0 4 2 5 6v4l2 1v2l5 5 2 8 4 2 6 7v4h-2l1 5-2-2-6-11-14-23-5-8z" fill="#626E7A"/>
<path transform="translate(1420,698)" d="m0 0h3l1 5-4 10h-3l-1 4h-3l-3-4 2-9z" fill="#845F63"/>
<path transform="translate(399,949)" d="m0 0h20v3l-6 2h-16l-20-1 1-3h14z" fill="#102D42"/>
<path transform="translate(1156,694)" d="m0 0h1l-1 12-4 28-2-3h-3l3-21 3-8 2-5z" fill="#704750"/>
<path transform="translate(925,261)" d="m0 0 2 1-10 10-6 8v3l8-11 3-2-2 5-9 16-2 3v-2l-3-1v-5-2l2-5 9-11z" fill="#626F7B"/>
<path transform="translate(977,209)" d="m0 0h18l-2 2v7l-11 1h-5l2-2 3-1-6-1-4-2 4-2z" fill="#0E4160"/>
<path transform="translate(490,414)" d="m0 0 6 4 6 5 1 7 1 6 3 3 2 7-5-3-2 4-1-4 1-2h-5l4-2-1-6-10-17z" fill="#626C78"/>
<path transform="translate(187,922)" d="m0 0h83v1l-27 1h-44l-5 4-2 3h-2l-1 3-1-9z" fill="#1D4961"/>
<path transform="translate(1094,460)" d="m0 0 2 1v5h-3l-12 18-13 22-11 18-1-2 3-5 3-7 5-7 4-9 4-4 7-12 10-16z" fill="#66707C"/>
<path transform="translate(699,364)" d="m0 0h2v15l-7 15-2-2-1-4 4-14 3-9z" fill="#093756"/>
<path transform="translate(1094,464)" d="m0 0h1l-1 9-6 11-3 4-4 4-2 4h-2l2-6 3-5 1-5 7-11z" fill="#3A4E5E"/>
<path transform="translate(717,276)" d="m0 0h1l1 5v10l-1 2 2 1-1 2h9l-1 2h-2v2l-4 1-9-3 1-9 2-4z" fill="#214C64"/>
<path transform="translate(1383,935)" d="m0 0h1v9l-3 19-2 6h-2v-19l2-10 1-2z" fill="#824A4E"/>
<path transform="translate(1175,974)" d="m0 0h1l1 9 1 1v8l-4 2h-7l-5-2v-1h8l2-2-2-4-3-1v-6h3l4 4z" fill="#6E4951"/>
<path transform="translate(1079,634)" d="m0 0 5 2 16 12 13 9-1 4h-6l-2-7-2-1v-2l-3 1-3-3-9-5-3-5-2-1v-2l-3-1z" fill="#714A52"/>
<path transform="translate(997,242)" d="m0 0 1 4-3 15v10l-13-2v-1l9-1 1-5-3-10-1-3 1-3 6 1 1-4z" fill="#0B3A58"/>
<path transform="translate(444,933)" d="m0 0 2 3-2 6-8 7-4 1-3-3-3-1v-2l11-4h2z" fill="#6D4E56"/>
<path transform="translate(410,413)" d="m0 0 1 3-2 2h-3l1 9 6 12-1 4-3-1-6-13-2-7 5-8z" fill="#2C4353"/>
<path transform="translate(1178,922)" d="m0 0 2 3h-2l-1 7-3 7-3 9h-3l-2-2v-7l1-4 5-1 1-4 2-1z" fill="#783245"/>
<path transform="translate(1030,535)" d="m0 0h1v8l-2 12-2 6-1 2-3-4v-9l4-10z" fill="#637D8B"/>
<path transform="translate(558,527)" d="m0 0 3 2v2l3 1 5 5 5 8-1 3-3 1-5-4-7-16z" fill="#354251"/>
<path transform="translate(764,289)" d="m0 0h5l-3 6-13 2-5-2h-14v-1l12-1 5-2z" fill="#1D4961"/>
<path transform="translate(907,322)" d="m0 0 1 2 3-1 1 4 2 1v6l-5 1-1 4h-4l-1-4z" fill="#1E4A62"/>
<path transform="translate(877,376)" d="m0 0 1 4-2 10-3 9-2 8-2 18h-1l1-28 3-14 2 2z" fill="#305C73"/>
<path transform="translate(1099,974)" d="m0 0 4 2v5l-8 7-5 3h-2l1-6 5-2 1-7z" fill="#71434D"/>
<path transform="translate(779,965)" d="m0 0h1l1 12 3 1v11l-2-1-3 4h-4l2-4 2-3-4 2-1-2 4-9z" fill="#834E52"/>
<path transform="translate(1515,987)" d="m0 0 3 1 1 6h-16l-8-1 5-4 3 1z" fill="#816064"/>
<path transform="translate(865,982)" d="m0 0 9 2 3 4h6l-1 3-5 2h-11l2-4-1-5h-2z" fill="#71404B"/>
<path transform="translate(535,503)" d="m0 0 5 1-1 5-8 5h-6l-1-2h2l2-5 5-3z" fill="#244559"/>
<path transform="translate(801,382)" d="m0 0 2 4v14l-4 2-3-4v-6z" fill="#112D42"/>
<path transform="translate(1050,970)" d="m0 0 5 1 4 3-1 2-3-2 6 12v2l-4-1-4-4-3-8z" fill="#865F63"/>
<path transform="translate(551,401)" d="m0 0 2 1 2 9h2v5h2l4 8 7 7 9 6v2l-5-2-10-8-7-9-5-12z" fill="#133044"/>
<path transform="translate(421,943)" d="m0 0h3v2l6 1 2 4-11 4h-8l4-2h2l-1-7z" fill="#2A4151"/>
<path transform="translate(898,316)" d="m0 0h1l-1 8-5 14h-2l-8 20-1-4 8-21z" fill="#62707C"/>
<path transform="translate(867,969)" d="m0 0h2l2 4 3 2 3 5 1 4h-3-6l-2-1z" fill="#816065"/>
<path transform="translate(567,361)" d="m0 0h2l-1 4-6 5-6 11-3 12-2 2 1-13 7-13 5-6z" fill="#122F44"/>
<path transform="translate(1176,901)" d="m0 0h8l5 1-6 10-4 2h-3l3-9 1-2-4-1z" fill="#865F63"/>
<path transform="translate(346,853)" d="m0 0 1 2-10 19-2 2h-16l-5-1v-1l8-2 5 1h7l5-8z" fill="#734C53"/>
<path transform="translate(447,492)" d="m0 0 4 4 10 16 14 21-1 2-4-3-6-11-13-20-4-7z" fill="#716870"/>
<path transform="translate(324,978)" d="m0 0h2v11l-1 6h-57v-1l53-1 3-8z" fill="#626974"/>
<path transform="translate(1383,901)" d="m0 0h9l1 9-4 2-3-3-5-3v-4z" fill="#80434A"/>
<path transform="translate(630,360)" d="m0 0h1l1 27-5 3-2-4-1-8h5z" fill="#28576F"/>
<path transform="translate(831,372)" d="m0 0h2l3 13 5 5 1-2-2 10-4-2-3-9-2-11z" fill="#62707C"/>
<path transform="translate(782,987)" d="m0 0 1 4-4 5-9 1-4-1v-4l7-3 4-1-2 4 5-2z" fill="#783748"/>
<path transform="translate(572,511)" d="m0 0 3 3 11 18 5 6-5 2-8-14-7-14z" fill="#694B54"/>
<path transform="translate(1193,902)" d="m0 0h13l-2 3-9 3h-3v2l-4 2-2 2v-2h-2l1-4h4v-2z" fill="#783445"/>
<path transform="translate(438,387)" d="m0 0 3 1-10 8-12 8-11 10-1-3 9-8 14-10z" fill="#254456"/>
<path transform="translate(170,976)" d="m0 0 7 6 5 6v2l7 1 6 1v1h-8l-8-2-6-4-1-6-2-2z" fill="#637D8B"/>
<path transform="translate(959,223)" d="m0 0 4 1-1 7-3 10-1 2-4 1 3-14z" fill="#335C72"/>
<path transform="translate(732,286)" d="m0 0h9l3 1v3l-10 3h-6l2-5z" fill="#0C1B24"/>
<path transform="translate(186,926)" d="m0 0 2 3-2 5-5 8-2 2v-9l2-8z" fill="#865F63"/>
<path transform="translate(204,669)" d="m0 0 6 1v3l-4 2h-10l-3-1 1-4z" fill="#865F63"/>
<path transform="translate(977,247)" d="m0 0h5l2 2 1 6-1 3-4 1-3-2z" fill="#071D31"/>
<path transform="translate(638,753)" d="m0 0h1l-1 17-3 20h-3l-1-7h3v-8z" fill="#835054"/>
<path transform="translate(939,489)" d="m0 0h1v9l-1 5-4-2-3-3-3-2v-2l8-3z" fill="#111E28"/>
<path transform="translate(1108,948)" d="m0 0 2 1v2h2l-1 4-3 2-3 5-2 1-5-1 1-3 4-4h2l2-4z" fill="#6F424A"/>
<path transform="translate(475,555)" d="m0 0 4 4 6 10 3 7 6 11 2 3-1 3-9-15-5-10-6-11z" fill="#616D79"/>
<path transform="translate(561,383)" d="m0 0v3 13l5 12v3l-4-5-4-8-1-10 2-7z" fill="#25526A"/>
<path transform="translate(740,197)" d="m0 0h2l4 7v4l-8 2v-9z" fill="#0D1B23"/>
<path transform="translate(1023,547)" d="m0 0 1 3v9l5 5h3l-2 4-11-8-2-1v-2h2l1-5z" fill="#616873"/>
<path transform="translate(943,531)" d="m0 0 24 18 1 3-5-2-6-4v-2l-4-2-9-7z" fill="#734653"/>
<path transform="translate(528,477)" d="m0 0 4 1 7 8v4h-2l1 5-2-2-6-11z" fill="#626C78"/>
<path transform="translate(431,476)" d="m0 0 3 4 10 17v3l-3-1-11-19-1-2h2z" fill="#624852"/>
<path transform="translate(1033,412)" d="m0 0 1 2h-2l1 3-6 5-4 4-4 2 2-6 2-3h2v-2h2v-2z" fill="#2A5369"/>
<path transform="translate(1485,982)" d="m0 0 10 2 4 4-3 1-3-2-1 2-8-1v-4z" fill="#7F4A4F"/>
<path transform="translate(498,968)" d="m0 0 3 1 2 6v7h-4l-2-3v-9z" fill="#814F54"/>
<path transform="translate(1050,407)" d="m0 0h9l8 5 4 4v2l-4-2-4-3-12-3z" fill="#153246"/>
<path transform="translate(719,269)" d="m0 0 3 4v20h-4v-20z" fill="#112F44"/>
<path transform="translate(112,214)" d="m0 0h3v3h-28l-2-2z" fill="#1F2C39"/>
<path transform="translate(892,500)" d="m0 0 7 4 8 6-3 2-5-2v-2l-3 1-3-3 1-1v-2h-2z" fill="#855E62"/>
<path transform="translate(1422,904)" d="m0 0h7l4 3v4l-5-1-2-1-1 2-2-1z" fill="#7A3849"/>
<path transform="translate(921,270)" d="m0 0v3l-10 18-2 3 1-9 7-11z" fill="#5E707D"/>
<path transform="translate(961,515)" d="m0 0 6 1v3h2l-1 5-5-2-7-5 2-1 3 1z" fill="#6D666E"/>
<path transform="translate(567,414)" d="m0 0 5 5 7 6 18 2v1l-6 1h-8l-8-4-7-7z" fill="#2A5971"/>
<path transform="translate(675,399)" d="m0 0h2l-1 7-4 3-4-2-2-3 6-1v-2z" fill="#102D42"/>
<path transform="translate(439,924)" d="m0 0 4 1 3 3v8l-2-2-4 4 1-12h-2z" fill="#2A4151"/>
<path transform="translate(405,412)" d="m0 0h2l-5 10 1 6h-3l-2-4 1-6z" fill="#173448"/>
<path transform="translate(730,946)" d="m0 0 2 4-1 8-1 5-4-1-1-4z" fill="#825054"/>
<path transform="translate(184,920)" d="m0 0h11l-2 2h-6l1 4-2 1h-6l1-3 2-1-4-2z" fill="#546674"/>
<path transform="translate(1199,905)" d="m0 0h7l1 5-15-1 4-3z" fill="#865F63"/>
<path transform="translate(891,337)" d="m0 0 1 2-7 21-3 3 1-7 7-18z" fill="#335D73"/>
<path transform="translate(1385,784)" d="m0 0 1 4-6 11h-2v-5l1-4h2l2-5z" fill="#806065"/>
<path transform="translate(502,436)" d="m0 0h2l3 3 2 7-5-3-2 4-1-4 1-2h-5l4-2z" fill="#626F7B"/>
<path transform="translate(797,406)" d="m0 0 5 1v2l-12 6-2-1 5-5z" fill="#112C40"/>
<path transform="translate(632,381)" d="m0 0 2 4-1 5-3 6-4-4-2-6h2l2 3 3-2z" fill="#1D4961"/>
<path transform="translate(869,967)" d="m0 0 4 1 1 5 4 1v6l-4-2-1-3-3-2z" fill="#763445"/>
<path transform="translate(541,500)" d="m0 0 3 3 3 7-10 1 2-3-1-6h3z" fill="#627886"/>
<path transform="translate(717,276)" d="m0 0h1l1 5v10l-1 2 2 1-3 1-2-6z" fill="#103F5C"/>
<path transform="translate(1027,452)" d="m0 0h2l-1 8h-1v-5l-4 4h-2l-2 5-5 6-1-2 4-6 8-9z" fill="#666F7A"/>
<path transform="translate(184,948)" d="m0 0h2l2 7-7-1-10-3v-1h10z" fill="#6D6972"/>
<path transform="translate(159,946)" d="m0 0h18l2 1-1 3-5-1h-12v-2z" fill="#68454E"/>
<path transform="translate(864,320)" d="m0 0 3 1-1 5-1 2-6 3-2-1z" fill="#826064"/>
<path transform="translate(501,577)" d="m0 0 8 8v2l-5 3h-2v-9z" fill="#796269"/>
<path transform="translate(587,363)" d="m0 0h11l7 3 1 3-11-3-9-1z" fill="#164966"/>
<path transform="translate(779,965)" d="m0 0h1l1 14-5 8-2-2 4-9z" fill="#866B70"/>
<path transform="translate(1094,460)" d="m0 0 2 1v5h-3l-7 10-2-1 8-13z" fill="#62737F"/>
<path transform="translate(734,222)" d="m0 0 3 1v6l-3 3-3-1v-6z" fill="#0D1C25"/>
<path transform="translate(1104,653)" d="m0 0 5 1 4 3-1 4h-6z" fill="#71484F"/>
<path transform="translate(1049,487)" d="m0 0v3l-7 12-6 9-1-2 6-10 7-11z" fill="#6F6870"/>
<path transform="translate(428,400)" d="m0 0 2 1-10 8-9 6 1-4z" fill="#25475C"/>
<path transform="translate(78,215)" d="m0 0h7l2 1 27 1v1h-30l-6-2z" fill="#65656F"/>
<path transform="translate(1342,857)" d="m0 0 4 1 9 9h-7l-3-3-1-6z" fill="#82484C"/>
<path transform="translate(882,347)" d="m0 0h1v7l-3 9-1-3v-3l-2 3 1-8 1-2h2z" fill="#214E66"/>
<path transform="translate(1019,475)" d="m0 0 1 3-8 15-1-2 3-6 1-7 2-2 1 1z" fill="#75646B"/>
<path transform="translate(197,985)" d="m0 0h11l4 1 10 2v1h-11l-14-3z" fill="#071D31"/>
<path transform="translate(1389,901)" d="m0 0h3l1 9-4 2-2-4 3-1-2-5z" fill="#82494D"/>
<path transform="translate(669,468)" d="m0 0h1v21l-8 5 1-4 6-2z" fill="#295269"/>
<path transform="translate(629,364)" d="m0 0h1v14l-2 1-4-1-2-5 6 2z" fill="#637D8B"/>
<path transform="translate(778,959)" d="m0 0h1v17l-4 9h-1v-5l3-7z" fill="#73474E"/>
<path transform="translate(412,441)" d="m0 0 3 4 5 9-1 2-4-4-4-7z" fill="#37414F"/>
<path transform="translate(145,940)" d="m0 0 7 2 6 3v1l-9-1-5-2z" fill="#153044"/>
<path transform="translate(1487,909)" d="m0 0h4l-2 10-3-1-1-7z" fill="#865F63"/>
<path transform="translate(952,246)" d="m0 0 5 2-1 4h-2v3h-2l-2 3 1-8z" fill="#335D73"/>
<path transform="translate(1458,733)" d="m0 0 3 2v10l-1-4-4 1 1-8z" fill="#86676B"/>
<path transform="translate(473,599)" d="m0 0h3v7l-2 2-4-1v-3h2v-2h2z" fill="#626C77"/>
<path transform="translate(535,503)" d="m0 0 5 1-1 4h-6v-2l-4 1 1-2z" fill="#355E74"/>
<path transform="translate(1086,475)" d="m0 0h3l-1 6-3 3-1 3h-2v-6z" fill="#495A6B"/>
<path transform="translate(565,427)" d="m0 0 8 6 6 4v2l-5-2-10-8z" fill="#1A364A"/>
<path transform="translate(1184,927)" d="m0 0h1v7l-1 5-4-2v-5z" fill="#73474F"/>
<path transform="translate(1112,909)" d="m0 0h7l-1 10h-3l-1-9z" fill="#865F63"/>
<path transform="translate(567,361)" d="m0 0h2l-1 4-9 7v-3l5-6z" fill="#15354B"/>
<path transform="translate(933,258)" d="m0 0 1 3-4 9-3 1-1-6 4-3h2z" fill="#5D7786"/>
<path transform="translate(1500,989)" d="m0 0 3 1 4-1-2 3 5 1v1l-15-1z" fill="#686770"/>
<path transform="translate(938,494)" d="m0 0h1v9l-4-2-3-3v-2h6z" fill="#0C1921"/>
<path transform="translate(616,985)" d="m0 0 2 3h3l1 4-3 2-4-1z" fill="#835155"/>
<path transform="translate(1183,913)" d="m0 0 3 1-1 3 2 1-3 3h-2l-2 2-1-2z" fill="#783245"/>
<path transform="translate(956,543)" d="m0 0 4 1 8 6v2l-5-2-6-4z" fill="#76404D"/>
<path transform="translate(514,514)" d="m0 0 2 1-1 1h10l-3 2-5 1h-8z" fill="#62717D"/>
<path transform="translate(881,358)" d="m0 0h1l1 8-2 4-3-1 2-8z" fill="#606B76"/>
<path transform="translate(649,337)" d="m0 0h2l1 6-4 3-2-4v-3z" fill="#0E4160"/>
<path transform="translate(324,978)" d="m0 0h2v11l-2 5-3-1 3-8z" fill="#3C5B6E"/>
<path transform="translate(1354,692)" d="m0 0 4 1 2 2-1 6-5 5 2-5 1-4-1-4z" fill="#796269"/>
<path transform="translate(1031,1028)" d="m0 0h22v2l-4 1-1-1-17-1z" fill="#071C2F"/>
<path transform="translate(201,990)" d="m0 0h8l4 1v2h-10l-2-1z" fill="#2A495B"/>
<path transform="translate(634,775)" d="m0 0h1v15h-3l-1-7h3z" fill="#84575B"/>
<path transform="translate(1085,778)" d="m0 0h2v9l-2-4-13 1v-2l11-1z" fill="#824D51"/>
<path transform="translate(447,492)" d="m0 0 4 4 6 9-1 4-9-15z" fill="#706871"/>
<path transform="translate(740,197)" d="m0 0h2l3 5v2h-5l-2-1z" fill="#10293C"/>
<path transform="translate(1084,989)" d="m0 0h2l1 3-10 2h-5l2-2 7-2z" fill="#6F4D55"/>
<path transform="translate(1434,913)" d="m0 0 4 2v5h-4l-1-6z" fill="#824A4E"/>
<path transform="translate(466,523)" d="m0 0 3 1 6 9-1 2-4-3-4-7z" fill="#72656D"/>
<path transform="translate(410,413)" d="m0 0 1 3-2 2h-3l-2 4-1-4 4-4z" fill="#2D4758"/>
<path transform="translate(1060,410)" d="m0 0h5l6 6v2l-4-2-4-3-3-1z" fill="#142A39"/>
<path transform="translate(461,376)" d="m0 0h2l-1 3-11 7 2-4z" fill="#284F65"/>
<path transform="translate(560,370)" d="m0 0 1 2-5 9-3 1 2-6 2-4z" fill="#163145"/>
<path transform="translate(960,251)" d="m0 0 2 4-2 6-2 4h-4l1-4h3z" fill="#0D4261"/>
<path transform="translate(768,988)" d="m0 0 4 1v2l-6 1v3l-4-2 1-2 2 1v-2z" fill="#7F4B4F"/>
<path transform="translate(485,448)" d="m0 0 2 1-8 7-5-1 4-3z" fill="#627A87"/>
<path transform="translate(786,280)" d="m0 0 2 1 2 6-1 4-1-4h-6l3-1z" fill="#234E65"/>
<path transform="translate(962,925)" d="m0 0h1l-1 14-3-1v-6l2-1z" fill="#6F434B"/>
<path transform="translate(803,392)" d="m0 0h1v14l-2 2-2-2v-3l2-1z" fill="#19455F"/>
<path transform="translate(908,283)" d="m0 0 3 2-2 7-3-1v-5z" fill="#627C8A"/>
<path transform="translate(993,263)" d="m0 0h1l1 8-13-2v-1l9-1z" fill="#26546C"/>
<path transform="translate(867,969)" d="m0 0h2l4 7-1 3-2-4h-3z" fill="#80787F"/>
<path transform="translate(418,457)" d="m0 0 4 4 4 7-1 2-6-8z" fill="#202F3D"/>
<path transform="translate(925,261)" d="m0 0 2 1-5 5-6 5v-3z" fill="#637D8B"/>
</svg>
